<?xml version="1.0" encoding="UTF-8" standalone="no"?> <svg width="512" height="512" viewBox="0 0 512 512" fill="none" xmlns="http://www.w3.org/2000/svg">
<path d="M64 40H40V88H64V40Z" fill="#57A4FF"/>
<path d="M112 168H80V384H112V168Z" fill="#57A4FF"/>
<path d="M224 232H192V384H224V232Z" fill="#57A4FF"/>
<path d="M280 264H248V384H280V264Z" fill="#57A4FF"/>
<path d="M384 152H320L274.74 197.26C267.299 189.817 261.809 180.655 258.754 170.584C255.7 160.512 255.177 149.844 257.23 139.522C259.284 129.2 263.851 119.544 270.528 111.409C277.204 103.273 285.784 96.9103 295.507 92.8826C305.23 88.855 315.796 87.2872 326.269 88.3181C336.743 89.3491 346.801 92.9469 355.552 98.793C364.303 104.639 371.477 112.553 376.439 121.834C381.401 131.115 383.998 141.476 384 152V152Z" fill="#57A4FF"/>
<path d="M416 64H368V16L416 64Z" fill="#57A4FF"/>
<path d="M416 64H368V16L416 64Z" fill="#57A4FF"/>
<path d="M112 168H80V384H112V168Z" fill="#57A4FF"/>
<path d="M224 232H192V384H224V232Z" fill="#57A4FF"/>
<path d="M280 264H248V384H280V264Z" fill="#57A4FF"/>
<path d="M64 40H40V88H64V40Z" fill="#57A4FF"/>
<path d="M320 88V152L274.74 197.26C265.791 188.308 259.697 176.904 257.228 164.489C254.76 152.074 256.028 139.206 260.872 127.511C265.717 115.817 273.92 105.821 284.444 98.7885C294.969 91.7557 307.342 88.0013 320 88V88Z" fill="#57A4FF"/>
<path d="M384 152H320V88C336.974 88 353.252 94.7428 365.255 106.745C377.257 118.747 384 135.026 384 152Z" fill="#57A4FF"/>
<path d="M490.343 354.343L480 364.686V35.314L490.343 45.657C491.843 47.1573 493.878 48.0002 496 48.0002C498.122 48.0002 500.157 47.1573 501.657 45.657C503.157 44.1567 504 42.1218 504 40C504 37.8782 503.157 35.8433 501.657 34.343L477.657 10.343C476.914 9.60007 476.032 9.01076 475.062 8.6087C474.091 8.20663 473.051 7.99969 472 7.99969C470.949 7.99969 469.909 8.20663 468.938 8.6087C467.968 9.01076 467.086 9.60007 466.343 10.343L442.343 34.343C441.6 35.0859 441.011 35.9678 440.609 36.9384C440.207 37.9091 440 38.9494 440 40C440 41.0506 440.207 42.0909 440.609 43.0615C441.011 44.0322 441.6 44.9141 442.343 45.657C443.086 46.3999 443.968 46.9892 444.938 47.3912C445.909 47.7933 446.949 48.0002 448 48.0002C449.051 48.0002 450.091 47.7933 451.062 47.3912C452.032 46.9892 452.914 46.3999 453.657 45.657L464 35.314V364.686L453.657 354.343C452.914 353.6 452.032 353.011 451.062 352.609C450.091 352.207 449.051 352 448 352C446.949 352 445.909 352.207 444.938 352.609C443.968 353.011 443.086 353.6 442.343 354.343C441.6 355.086 441.011 355.968 440.609 356.938C440.207 357.909 440 358.949 440 360C440 361.051 440.207 362.091 440.609 363.062C441.011 364.032 441.6 364.914 442.343 365.657L466.343 389.657C467.086 390.4 467.968 390.989 468.938 391.391C469.909 391.793 470.949 392 472 392C473.051 392 474.091 391.793 475.062 391.391C476.032 390.989 476.914 390.4 477.657 389.657L501.657 365.657C503.157 364.157 504 362.122 504 360C504 357.878 503.157 355.843 501.657 354.343C500.157 352.843 498.122 352 496 352C493.878 352 491.843 352.843 490.343 354.343V354.343Z" fill="#004FAC"/>
<path d="M365.657 442.343C364.157 440.843 362.122 440 360 440C357.878 440 355.843 440.843 354.343 442.343C352.843 443.843 352 445.878 352 448C352 450.122 352.843 452.157 354.343 453.657L364.686 464H35.314L45.657 453.657C47.1574 452.157 48.0003 450.122 48.0003 448C48.0003 445.878 47.1574 443.843 45.657 442.343C44.1567 440.843 42.1218 440 40 440C37.8783 440 35.8434 440.843 34.343 442.343L10.343 466.343C9.60014 467.086 9.01082 467.968 8.60876 468.938C8.2067 469.909 7.99976 470.949 7.99976 472C7.99976 473.051 8.2067 474.091 8.60876 475.062C9.01082 476.032 9.60014 476.914 10.343 477.657L34.343 501.657C35.0859 502.4 35.9679 502.989 36.9385 503.391C37.9091 503.793 38.9494 504 40 504C41.0506 504 42.091 503.793 43.0616 503.391C44.0322 502.989 44.9142 502.4 45.657 501.657C46.3999 500.914 46.9892 500.032 47.3913 499.062C47.7933 498.091 48.0003 497.051 48.0003 496C48.0003 494.949 47.7933 493.909 47.3913 492.938C46.9892 491.968 46.3999 491.086 45.657 490.343L35.314 480H364.686L354.343 490.343C352.843 491.843 352 493.878 352 496C352 498.122 352.843 500.157 354.343 501.657C355.843 503.157 357.878 504 360 504C362.122 504 364.157 503.157 365.657 501.657L389.657 477.657C390.4 476.914 390.989 476.032 391.391 475.062C391.793 474.091 392 473.051 392 472C392 470.949 391.793 469.909 391.391 468.938C390.989 467.968 390.4 467.086 389.657 466.343L365.657 442.343Z" fill="#004FAC"/>
<path d="M464 408H424V64C424.001 61.8778 423.159 59.8421 421.66 58.34L373.66 10.34C372.158 8.84084 370.122 7.99921 368 8H16C13.8783 8 11.8434 8.84285 10.3431 10.3431C8.84285 11.8434 8 13.8783 8 16V416C8 418.122 8.84285 420.157 10.3431 421.657C11.8434 423.157 13.8783 424 16 424H408V496C408 498.122 408.843 500.157 410.343 501.657C411.843 503.157 413.878 504 416 504C418.122 504 420.157 503.157 421.657 501.657C423.157 500.157 424 498.122 424 496V424H464C466.122 424 468.157 423.157 469.657 421.657C471.157 420.157 472 418.122 472 416C472 413.878 471.157 411.843 469.657 410.343C468.157 408.843 466.122 408 464 408ZM376 35.31L396.69 56H376V35.31ZM408 408H24V24H360V64C360 66.1217 360.843 68.1566 362.343 69.6569C363.843 71.1571 365.878 72 368 72H408V408Z" fill="#004FAC"/>
<path d="M496 408H488C485.878 408 483.843 408.843 482.343 410.343C480.843 411.843 480 413.878 480 416C480 418.122 480.843 420.157 482.343 421.657C483.843 423.157 485.878 424 488 424H496C498.122 424 500.157 423.157 501.657 421.657C503.157 420.157 504 418.122 504 416C504 413.878 503.157 411.843 501.657 410.343C500.157 408.843 498.122 408 496 408Z" fill="#004FAC"/>
<path d="M360 376H344V296C344 293.878 343.157 291.843 341.657 290.343C340.157 288.843 338.122 288 336 288H304C301.878 288 299.843 288.843 298.343 290.343C296.843 291.843 296 293.878 296 296V376H288V264C288 261.878 287.157 259.843 285.657 258.343C284.157 256.843 282.122 256 280 256H248C245.878 256 243.843 256.843 242.343 258.343C240.843 259.843 240 261.878 240 264V376H232V232C232 229.878 231.157 227.843 229.657 226.343C228.157 224.843 226.122 224 224 224H192C189.878 224 187.843 224.843 186.343 226.343C184.843 227.843 184 229.878 184 232V376H176V200C176 197.878 175.157 195.843 173.657 194.343C172.157 192.843 170.122 192 168 192H136C133.878 192 131.843 192.843 130.343 194.343C128.843 195.843 128 197.878 128 200V376H120V168C120 165.878 119.157 163.843 117.657 162.343C116.157 160.843 114.122 160 112 160H80C77.8783 160 75.8434 160.843 74.3431 162.343C72.8429 163.843 72 165.878 72 168V376H56V168C56 165.878 55.1571 163.843 53.6569 162.343C52.1566 160.843 50.1217 160 48 160C45.8783 160 43.8434 160.843 42.3431 162.343C40.8429 163.843 40 165.878 40 168V384C40 386.122 40.8429 388.157 42.3431 389.657C43.8434 391.157 45.8783 392 48 392H360C362.122 392 364.157 391.157 365.657 389.657C367.157 388.157 368 386.122 368 384C368 381.878 367.157 379.843 365.657 378.343C364.157 376.843 362.122 376 360 376ZM104 376H88V176H104V376ZM160 376H144V208H160V376ZM216 376H200V240H216V376ZM272 376H256V272H272V376ZM328 376H312V304H328V376Z" fill="#004FAC"/>
<path d="M392 376H384C381.878 376 379.843 376.843 378.343 378.343C376.843 379.843 376 381.878 376 384C376 386.122 376.843 388.157 378.343 389.657C379.843 391.157 381.878 392 384 392H392C394.122 392 396.157 391.157 397.657 389.657C399.157 388.157 400 386.122 400 384C400 381.878 399.157 379.843 397.657 378.343C396.157 376.843 394.122 376 392 376Z" fill="#004FAC"/>
<path d="M88 48H168C170.122 48 172.157 47.1571 173.657 45.6569C175.157 44.1566 176 42.1217 176 40C176 37.8783 175.157 35.8434 173.657 34.3431C172.157 32.8429 170.122 32 168 32H88C85.8783 32 83.8434 32.8429 82.3431 34.3431C80.8429 35.8434 80 37.8783 80 40C80 42.1217 80.8429 44.1566 82.3431 45.6569C83.8434 47.1571 85.8783 48 88 48V48Z" fill="#004FAC"/>
<path d="M88 72H144C146.122 72 148.157 71.1571 149.657 69.6569C151.157 68.1566 152 66.1217 152 64C152 61.8783 151.157 59.8434 149.657 58.3431C148.157 56.8429 146.122 56 144 56H88C85.8783 56 83.8434 56.8429 82.3431 58.3431C80.8429 59.8434 80 61.8783 80 64C80 66.1217 80.8429 68.1566 82.3431 69.6569C83.8434 71.1571 85.8783 72 88 72V72Z" fill="#004FAC"/>
<path d="M88 96H104C106.122 96 108.157 95.1571 109.657 93.6569C111.157 92.1566 112 90.1217 112 88C112 85.8783 111.157 83.8434 109.657 82.3431C108.157 80.8429 106.122 80 104 80H88C85.8783 80 83.8434 80.8429 82.3431 82.3431C80.8429 83.8434 80 85.8783 80 88C80 90.1217 80.8429 92.1566 82.3431 93.6569C83.8434 95.1571 85.8783 96 88 96V96Z" fill="#004FAC"/>
<path d="M64 96C66.1217 96 68.1566 95.1571 69.6569 93.6569C71.1571 92.1566 72 90.1217 72 88V40C72 37.8783 71.1571 35.8434 69.6569 34.3431C68.1566 32.8429 66.1217 32 64 32H40C37.8783 32 35.8434 32.8429 34.3431 34.3431C32.8429 35.8434 32 37.8783 32 40V88C32 90.1217 32.8429 92.1566 34.3431 93.6569C35.8434 95.1571 37.8783 96 40 96H64ZM48 48H56V80H48V48Z" fill="#004FAC"/>
<path d="M320 80C305.76 80 291.839 84.2227 279.999 92.1342C268.159 100.046 258.93 111.291 253.481 124.447C248.031 137.603 246.605 152.08 249.383 166.047C252.162 180.013 259.019 192.842 269.088 202.912C279.158 212.981 291.987 219.838 305.954 222.617C319.92 225.395 334.397 223.969 347.553 218.519C360.71 213.07 371.954 203.841 379.866 192.001C387.777 180.161 392 166.24 392 152C391.978 132.911 384.385 114.61 370.887 101.113C357.39 87.6147 339.089 80.022 320 80V80ZM328 96.58C339.956 98.3247 351.03 103.882 359.574 112.426C368.118 120.97 373.675 132.044 375.42 144H328V96.58ZM264 152C264.019 138.54 268.879 125.536 277.691 115.361C286.503 105.187 298.68 98.5206 312 96.58V148.69L275.17 185.52C267.908 175.855 263.988 164.089 264 152V152ZM320 208C307.911 208.012 296.145 204.092 286.48 196.83L323.31 160H375.42C373.479 173.32 366.814 185.497 356.639 194.309C346.465 203.122 333.46 207.981 320 208V208Z" fill="#004FAC"/>
</svg>
